HIERARCHY
ROOT Pelvis
{
	OFFSET -0.217368 -24.078917 2.858379
	CHANNELS 6 Xposition Yposition Zposition Zrotation Yrotation Xrotation 
	JOINT Left_hip
	{
		OFFSET 5.858135 -8.228005 -1.766408
		CHANNELS 3 Zrotation Yrotation Xrotation
		JOINT Left_knee
		{
			OFFSET 4.345143 -38.646942 0.803700
			CHANNELS 3 Zrotation Yrotation Xrotation
			JOINT Left_ankle
			{
				OFFSET -1.479033 -42.687447 -3.742800
				CHANNELS 3 Zrotation Yrotation Xrotation
				JOINT Left_foot
				{
					OFFSET 4.105436 -6.028605 12.204244
					CHANNELS 3 Zrotation Yrotation Xrotation
					End Site
					{
						OFFSET 0.000000 0.000000 0.000000
					}
				}
			}
		}
	}
	JOINT Right_hip
	{
		OFFSET -6.030973 -9.051328 -1.354253
		CHANNELS 3 Zrotation Yrotation Xrotation
		JOINT Right_knee
		{
			OFFSET -4.325663 -38.368790 -0.484304
			CHANNELS 3 Zrotation Yrotation Xrotation
			JOINT Right_ankle
			{
				OFFSET 1.905555 -42.004566 -3.456167
				CHANNELS 3 Zrotation Yrotation Xrotation
				JOINT Right_foot
				{
					OFFSET -3.483987 -6.210554 13.032330
					CHANNELS 3 Zrotation Yrotation Xrotation
					End Site
					{
						OFFSET 0.000000 0.000000 0.000000
					}
				}
			}
		}
	}
	JOINT Spine1
	{
		OFFSET 0.443945 12.440353 -3.838522
		CHANNELS 3 Zrotation Yrotation Xrotation
		JOINT Spine2
		{
			OFFSET 0.448844 13.795640 2.682033
			CHANNELS 3 Zrotation Yrotation Xrotation
			JOINT Spine3
			{
				OFFSET -0.226460 5.603239 0.285504
				CHANNELS 3 Zrotation Yrotation Xrotation
				JOINT Neck
				{
					OFFSET -1.339018 21.163553 -3.346758
					CHANNELS 3 Zrotation Yrotation Xrotation
					JOINT Head
					{
						OFFSET 1.011321 8.893734 5.040987
						CHANNELS 3 Zrotation Yrotation Xrotation
						End Site
						{
							OFFSET 0.000000 0.000000 0.000000
						}
					}
				}
				JOINT Left_collar
				{
					OFFSET 7.170247 11.399971 -1.889817
					CHANNELS 3 Zrotation Yrotation Xrotation
					JOINT Left_shoulder
					{
						OFFSET 12.292140 4.520507 -1.904600
						CHANNELS 3 Zrotation Yrotation Xrotation
						JOINT Left_elbow
						{
							OFFSET 25.533188 -1.564902 -2.294648
							CHANNELS 3 Zrotation Yrotation Xrotation
							JOINT Left_wrist
							{
								OFFSET 26.570929 1.269810 -0.737473
								CHANNELS 3 Zrotation Yrotation Xrotation
								JOINT Left_palm
								{
									OFFSET 8.669054 -1.063602 -1.559429
									CHANNELS 3 Zrotation Yrotation Xrotation
									End Site
									{
										OFFSET 0.000000 0.000000 0.000000
									}
								}
							}
						}
					}
				}
				JOINT Right_collar
				{
					OFFSET -8.295364 11.247234 -2.370738
					CHANNELS 3 Zrotation Yrotation Xrotation
					JOINT Right_shoulder
					{
						OFFSET -11.322830 4.685326 -0.847207
						CHANNELS 3 Zrotation Yrotation Xrotation
						JOINT Right_elbow
						{
							OFFSET -26.012751 -1.436928 -3.126872
							CHANNELS 3 Zrotation Yrotation Xrotation
							JOINT Right_wrist
							{
								OFFSET -26.910841 0.679372 -0.602677
								CHANNELS 3 Zrotation Yrotation Xrotation
								JOINT Right_palm
								{
									OFFSET -8.875370 -0.865157 -1.010708
									CHANNELS 3 Zrotation Yrotation Xrotation
									End Site
									{
										OFFSET 0.000000 0.000000 0.000000
									}
								}
							}
						}
					}
				}
			}
		}
	}
}
MOTION
Frames: 8
Frame Time: 0.016667
-2.700737 81.506561 -2.224850 -0.319715 -3.928034 2.844426 -3.782040 -1.244604 -10.319802 -2.513268 -0.016210 23.517950 -4.148065 4.338002 29.968455 0.000000 0.000000 0.000000 3.882777 1.448097 -11.431883 -1.417001 1.704778 28.387452 8.527506 2.164606 29.756283 0.000000 0.000000 0.000000 5.333990 -0.196173 1.745739 -3.918695 1.622258 -20.206889 0.095199 6.456959 34.586024 6.233468 -5.548164 3.495371 0.000000 0.000000 0.000000 -7.016361 -5.656577 1.597868 -42.530926 -5.095695 -2.947931 10.944775 -24.294880 -1.415848 0.000000 0.000000 0.000000 0.000000 0.000000 0.000000 18.335746 -4.735576 -4.345977 43.422213 2.781950 -2.832770 -13.581394 23.800967 -1.840174 0.000000 0.000000 0.000000 0.000000 0.000000 0.000000 
-2.614133 72.325172 -3.031422 -0.504817 -2.517074 1.949905 -5.461573 -1.680732 -12.467380 -2.616803 -0.145039 36.430312 -0.084772 3.469753 8.906074 0.000000 0.000000 0.000000 7.107120 1.691474 -11.371116 -2.096886 2.688930 39.172707 0.258194 -2.487617 6.622385 0.000000 0.000000 0.000000 6.280009 -0.893136 8.769399 -5.612008 2.054219 -21.591155 -0.436747 5.643353 34.614072 7.904790 -5.904793 -1.955906 0.000000 0.000000 0.000000 -9.957284 -3.915634 0.700617 -57.857906 -4.346706 -4.415147 4.959665 -28.391392 -0.184533 0.000000 0.000000 0.000000 0.000000 0.000000 0.000000 22.008094 -5.692127 -5.487057 61.606543 -0.644284 -5.919903 -7.968437 25.487472 -0.840563 0.000000 0.000000 0.000000 0.000000 0.000000 0.000000 
-2.510380 64.709396 -4.251343 0.175572 -1.766556 0.186786 -8.283781 -2.925871 -18.230879 -3.932551 0.465948 52.807528 6.168955 12.168752 -3.531031 0.000000 0.000000 0.000000 8.194828 2.623776 -16.223948 -0.131599 2.544156 54.187695 -3.614504 -6.644333 -7.197339 0.000000 0.000000 0.000000 5.306948 -1.289048 14.200348 -5.420470 2.014084 -21.182763 -1.124264 4.966866 35.962207 7.809597 -4.945054 -6.858369 0.000000 0.000000 0.000000 -9.959145 -3.862813 0.677384 -69.626609 -5.593222 -4.685466 5.742153 -23.934312 -0.312995 0.000000 0.000000 0.000000 0.000000 0.000000 0.000000 22.900023 -6.101016 -5.880684 72.867200 -0.562908 -7.228445 -5.080079 23.994902 -0.225511 0.000000 0.000000 0.000000 0.000000 0.000000 0.000000 
-2.395613 62.003578 -4.647070 -0.272933 -4.396380 -1.481608 -7.980270 -3.143092 -19.817733 -5.471092 1.529055 56.616668 7.553671 15.069464 -4.364259 0.000000 0.000000 0.000000 7.381701 2.565004 -16.466903 -0.176948 2.836859 58.597186 -4.488924 -8.746914 -8.751053 0.000000 0.000000 0.000000 6.051304 -1.611554 16.530265 -6.036622 2.165788 -21.620672 -1.289553 6.758546 36.698256 9.976540 -6.654439 -5.991451 0.000000 0.000000 0.000000 -7.575053 -2.946017 0.451916 -70.972480 -6.418347 -4.263808 10.013939 -19.661751 -0.971917 0.000000 0.000000 0.000000 0.000000 0.000000 0.000000 22.094194 -7.158256 -6.330118 72.110032 -0.764285 -7.261931 -7.754577 23.490522 -0.718259 0.000000 0.000000 0.000000 0.000000 0.000000 0.000000 
-2.353312 65.666016 -4.092185 -0.482356 -5.702370 -2.272302 -7.424815 -1.968574 -13.052242 -4.976113 1.046292 46.077621 5.895745 12.082037 -0.991623 0.000000 0.000000 0.000000 8.223450 1.624784 -10.484504 -1.786059 3.164639 48.079863 -1.605677 -0.987638 -6.338171 0.000000 0.000000 0.000000 5.503307 -1.355329 14.642273 -6.366122 2.244113 -21.876720 -0.062684 7.717619 35.562027 11.362573 -7.370060 -7.265962 0.000000 0.000000 0.000000 -6.695160 -0.144203 -0.610826 -63.526020 -6.471323 -3.731248 13.557939 -14.201561 -1.111570 0.000000 0.000000 0.000000 0.000000 0.000000 0.000000 20.812310 -9.496206 -7.366706 66.664636 -0.921141 -6.672320 -15.556282 19.583366 -1.752961 0.000000 0.000000 0.000000 0.000000 0.000000 0.000000 
-2.367336 73.404510 -3.077487 -0.689386 -8.403939 -2.422756 -6.622554 -0.469689 -3.662486 -2.614343 -0.014756 26.096926 -0.462940 4.425583 13.644771 0.000000 0.000000 0.000000 4.280117 0.699691 -5.796311 -1.581879 2.151317 34.650522 6.810821 10.123533 9.368042 0.000000 0.000000 0.000000 3.635971 -0.810884 10.733865 -3.172796 1.404692 -22.285168 -0.263477 8.525182 34.793448 8.890462 -6.104972 -4.791300 0.000000 0.000000 0.000000 -6.942870 6.130934 -3.155816 -53.738165 -6.630657 -3.055992 20.694107 -6.806212 -0.891647 0.000000 0.000000 0.000000 0.000000 0.000000 0.000000 17.017140 -12.249811 -7.951229 56.187514 3.577398 -3.351197 -22.807378 12.809970 -1.688245 0.000000 0.000000 0.000000 0.000000 0.000000 0.000000 
-2.295199 81.753708 -2.159595 -1.650017 -10.351120 -0.213276 -2.256697 0.329996 2.719575 -3.390778 0.344269 6.544818 -7.543596 1.255229 32.760078 0.000000 0.000000 0.000000 -0.795030 0.441586 -4.546548 0.028785 0.752903 18.682628 15.917436 9.122804 36.123078 0.000000 0.000000 0.000000 4.824263 -0.549156 6.137539 -4.603806 1.760319 -23.059418 1.427263 7.578116 31.872662 6.785429 -5.479717 0.544197 0.000000 0.000000 0.000000 -3.318717 7.582473 -3.098995 -42.522168 -5.280573 -2.885808 26.271253 0.570862 0.239349 0.000000 0.000000 0.000000 0.000000 0.000000 0.000000 9.018274 -11.959973 -5.974826 44.572073 8.092328 -1.048075 -28.510859 1.801523 0.234177 0.000000 0.000000 0.000000 0.000000 0.000000 0.000000 
-2.221778 87.716194 -1.452947 -3.241898 -7.950931 2.676208 4.627643 0.032590 1.729590 -4.119383 0.457373 2.436805 -7.852537 2.552228 37.616013 0.000000 0.000000 0.000000 -3.756595 0.573025 -7.245356 -1.850475 0.929198 12.865024 16.245583 6.068045 42.890068 0.000000 0.000000 0.000000 6.223670 0.006778 -0.604432 -4.556158 1.765265 -22.109374 2.157949 6.382892 29.350998 5.930720 -5.252436 3.269577 0.000000 0.000000 0.000000 1.384098 3.360072 -0.943977 -29.695028 -5.938904 -1.920568 27.713155 4.573656 1.089683 0.000000 0.000000 0.000000 0.000000 0.000000 0.000000 2.875606 -9.785476 -3.850063 25.163029 12.005893 -0.099343 -24.706489 -8.694178 2.173688 0.000000 0.000000 0.000000 0.000000 0.000000 0.000000 
